<svg width="116" height="17" viewBox="0 0 116 17" fill="none" xmlns="http://www.w3.org/2000/svg">
<mask id="mask0_0_3" style="mask-type:alpha" maskUnits="userSpaceOnUse" x="0" y="0" width="116" height="17">
<path fill-rule="evenodd" clip-rule="evenodd" d="M13.5033 16.0001V0.0280762H16.8693V16.0001H13.5033ZM75.509 16.0001V0.600075H77.247H78.039H85.761V2.91008H78.039V7.02408H85.123V9.24607H78.039V13.6901H85.871V16.0001H78.039H77.247H75.509ZM101.911 16.0001V7.64008H99.3814V5.44008H101.911V1.04008H104.331V5.44008H106.861V7.64008H104.331V16.0001H101.911ZM111.639 16.2201C111.052 16.2201 110.488 16.1467 109.945 16.0001C109.402 15.8387 108.904 15.6187 108.449 15.3401C107.994 15.0467 107.598 14.6947 107.261 14.2841L108.801 12.7441C109.168 13.1694 109.586 13.4921 110.055 13.7121C110.539 13.9174 111.082 14.0201 111.683 14.0201C112.226 14.0201 112.636 13.9394 112.915 13.7781C113.194 13.6167 113.333 13.3821 113.333 13.0741C113.333 12.7514 113.201 12.5021 112.937 12.3261C112.673 12.1501 112.328 12.0034 111.903 11.8861C111.492 11.7541 111.052 11.6221 110.583 11.4901C110.128 11.3581 109.688 11.1821 109.263 10.9621C108.852 10.7274 108.515 10.4121 108.251 10.0161C107.987 9.62008 107.855 9.10674 107.855 8.47608C107.855 7.80141 108.009 7.22208 108.317 6.73808C108.64 6.25408 109.087 5.88008 109.659 5.61608C110.246 5.35208 110.942 5.22008 111.749 5.22008C112.6 5.22008 113.348 5.37408 113.993 5.68208C114.653 5.97541 115.203 6.42274 115.643 7.02408L114.103 8.56408C113.795 8.18274 113.443 7.89674 113.047 7.70608C112.651 7.51541 112.196 7.42008 111.683 7.42008C111.199 7.42008 110.825 7.49341 110.561 7.64008C110.297 7.78674 110.165 7.99941 110.165 8.27808C110.165 8.57141 110.297 8.79874 110.561 8.96008C110.825 9.12141 111.162 9.26074 111.573 9.37808C111.998 9.49541 112.438 9.62741 112.893 9.77408C113.362 9.90608 113.802 10.0967 114.213 10.3461C114.638 10.5807 114.983 10.9034 115.247 11.3141C115.511 11.7101 115.643 12.2307 115.643 12.8761C115.643 13.9027 115.284 14.7167 114.565 15.3181C113.846 15.9194 112.871 16.2201 111.639 16.2201ZM89.5897 15.4941C90.3671 15.9781 91.2324 16.2201 92.1857 16.2201C92.9924 16.2201 93.7111 16.0514 94.3417 15.7141C94.7633 15.4788 95.1227 15.1877 95.4197 14.841V16.0001H97.8397V5.44008H95.4197V6.61541C95.1136 6.26572 94.747 5.97661 94.3197 5.74808C93.7037 5.39608 92.9924 5.22008 92.1857 5.22008C91.2324 5.22008 90.3671 5.46941 89.5897 5.96808C88.8271 6.45208 88.2184 7.11208 87.7637 7.94808C87.3237 8.76941 87.1037 9.70075 87.1037 10.7421C87.1037 11.7687 87.3237 12.7001 87.7637 13.5361C88.2184 14.3574 88.8271 15.0101 89.5897 15.4941ZM94.7377 13.0301C94.1951 13.6314 93.4764 13.9321 92.5817 13.9321C91.9951 13.9321 91.4744 13.8001 91.0197 13.5361C90.5797 13.2574 90.2277 12.8761 89.9637 12.3921C89.7144 11.9081 89.5897 11.3507 89.5897 10.7201C89.5897 10.0894 89.7144 9.53208 89.9637 9.04808C90.2277 8.56408 90.5797 8.19008 91.0197 7.92608C91.4744 7.64741 91.9951 7.50808 92.5817 7.50808C93.1831 7.50808 93.7037 7.64741 94.1437 7.92608C94.5984 8.19008 94.9504 8.56408 95.1997 9.04808C95.4491 9.53208 95.5737 10.0894 95.5737 10.7201C95.5737 11.6587 95.2951 12.4287 94.7377 13.0301ZM65.3703 15.5381C66.2796 16.0074 67.3136 16.2421 68.4723 16.2421C69.367 16.2421 70.1883 16.0881 70.9363 15.7801C71.6843 15.4721 72.3223 15.0101 72.8503 14.3941L71.0023 12.5461C70.6796 12.9127 70.3056 13.1914 69.8803 13.3821C69.455 13.5581 68.9783 13.6461 68.4503 13.6461C67.8783 13.6461 67.3796 13.5287 66.9543 13.2941C66.5436 13.0447 66.221 12.7001 65.9863 12.2601C65.9125 12.1074 65.851 11.9449 65.8019 11.7724L73.4663 11.7541C73.525 11.4754 73.5616 11.2334 73.5763 11.0281C73.6056 10.8081 73.6203 10.6027 73.6203 10.4121C73.6203 9.37075 73.3856 8.44674 72.9163 7.64008C72.4616 6.83341 71.831 6.20274 71.0243 5.74808C70.2177 5.29341 69.2863 5.06608 68.2303 5.06608C67.145 5.06608 66.1696 5.30808 65.3043 5.79208C64.439 6.27608 63.7496 6.94341 63.2363 7.79408C62.7376 8.63008 62.4883 9.58341 62.4883 10.6541C62.4883 11.7247 62.745 12.6854 63.2583 13.5361C63.7716 14.3867 64.4756 15.0541 65.3703 15.5381ZM65.8033 9.46169C65.8471 9.30736 65.9008 9.16216 65.9643 9.02608C66.1843 8.58608 66.485 8.24874 66.8663 8.01408C67.2623 7.76474 67.7243 7.64008 68.2523 7.64008C68.751 7.64008 69.169 7.75008 69.5063 7.97008C69.8583 8.17541 70.1223 8.48341 70.2983 8.89408C70.3719 9.05965 70.4314 9.24445 70.4768 9.44848L65.8033 9.46169ZM56.3581 16.0001V8.16808H53.938V5.30808H56.3581V0.886076H59.724V5.30808H62.1441V8.16808H59.724V16.0001H56.3581ZM43.8021 15.4941C44.5794 15.9781 45.4594 16.2201 46.4421 16.2201C47.1607 16.2201 47.8134 16.0807 48.4001 15.8021C48.779 15.6221 49.109 15.3992 49.3901 15.1335V16.0001H52.6901V5.30807H49.3901V6.19598C49.1 5.91873 48.7627 5.68876 48.3781 5.50607C47.8061 5.22741 47.1607 5.08807 46.4421 5.08807C45.4594 5.08807 44.5794 5.33007 43.8021 5.81407C43.0394 6.29807 42.4307 6.95807 41.9761 7.79407C41.5361 8.63007 41.3161 9.58341 41.3161 10.6541C41.3161 11.7247 41.5361 12.6781 41.9761 13.5141C42.4307 14.3501 43.0394 15.0101 43.8021 15.4941ZM48.8621 12.4801C48.4221 12.9494 47.8427 13.1841 47.1241 13.1841C46.6694 13.1841 46.2587 13.0741 45.8921 12.8541C45.5254 12.6341 45.2394 12.3334 45.0341 11.9521C44.8287 11.5707 44.7261 11.1381 44.7261 10.6541C44.7261 10.1554 44.8287 9.71541 45.0341 9.33407C45.2541 8.95274 45.5401 8.65941 45.8921 8.45407C46.2587 8.23407 46.6767 8.12407 47.1461 8.12407C47.6154 8.12407 48.0261 8.23407 48.3781 8.45407C48.7447 8.65941 49.0234 8.95274 49.2141 9.33407C49.4194 9.71541 49.5221 10.1554 49.5221 10.6541C49.5221 11.3874 49.3021 11.9961 48.8621 12.4801ZM34.0464 16.0001L29.5144 5.30807H33.1444L35.4324 11.9269L37.7204 5.30807H41.2844L36.7524 15.9781L34.0464 16.0001ZM21.1976 15.5381C22.1069 16.0074 23.1409 16.2421 24.2996 16.2421C25.1943 16.2421 26.0156 16.0881 26.7636 15.7801C27.5116 15.4721 28.1496 15.0101 28.6776 14.3941L26.8296 12.5461C26.5069 12.9127 26.1329 13.1914 25.7076 13.3821C25.2822 13.5581 24.8056 13.6461 24.2776 13.6461C23.7056 13.6461 23.2069 13.5287 22.7816 13.2941C22.3709 13.0447 22.0483 12.7001 21.8136 12.2601C21.7397 12.1074 21.6783 11.9449 21.6292 11.7724L29.2936 11.7541C29.3522 11.4754 29.3889 11.2334 29.4036 11.0281C29.4329 10.8081 29.4476 10.6027 29.4476 10.4121C29.4476 9.37075 29.2129 8.44674 28.7436 7.64008C28.2889 6.83341 27.6582 6.20274 26.8516 5.74808C26.0449 5.29341 25.1136 5.06608 24.0576 5.06608C22.9722 5.06608 21.9969 5.30808 21.1316 5.79208C20.2662 6.27608 19.5769 6.94341 19.0636 7.79408C18.5649 8.63008 18.3156 9.58341 18.3156 10.6541C18.3156 11.7247 18.5722 12.6854 19.0856 13.5361C19.5989 14.3867 20.3029 15.0541 21.1976 15.5381ZM21.6305 9.46169C21.6744 9.30736 21.7281 9.16216 21.7916 9.02608C22.0116 8.58608 22.3122 8.24874 22.6936 8.01408C23.0896 7.76474 23.5516 7.64008 24.0796 7.64008C24.5783 7.64008 24.9963 7.75008 25.3336 7.97008C25.6856 8.17541 25.9496 8.48341 26.1256 8.89408C26.1992 9.05965 26.2587 9.24445 26.304 9.44848L21.6305 9.46169ZM0.496094 0.468075V16.0001H3.13609H3.95009H11.6501V13.0081H3.95009V9.51007H10.8801V6.62807H3.95009V3.43807H11.5401V0.468075H3.95009H3.13609H0.496094Z" fill="#16222B"/>
</mask>
<g mask="url(#mask0_0_3)">
<rect x="-2" y="-7" width="124" height="30" fill="#16222B"/>
</g>
</svg>
